<svg xmlns="http://www.w3.org/2000/svg" viewBox="0 0 326 298.33"><defs><style>.cls-1{fill:#fff;}</style></defs><g id="Layer_2" data-name="Layer 2"><g id="Layer_1-2" data-name="Layer 1"><path class="cls-1" d="M326,58.93A163,163,0,1,1,11,0,153.51,153.51,0,1,0,317,17.43q0-7-.61-13.76A162.61,162.61,0,0,1,326,58.93Z"/><path class="cls-1" d="M168.52,248.22l-6-9.29-4.23,7.62c-4.83,8.69-14.06,15-25,17.06L113,267.44l19.86,4.19c10.61,2.24,19.49,8.44,24.19,16.89l5.45,9.81,6.35-10.61c4.77-8,13.33-13.82,23.49-16L212,267.44l-19.91-4C182.07,261.46,173.51,255.92,168.52,248.22Z"/></g></g></svg>